<svg width="33" height="33" viewBox="0 0 33 33" fill="none" xmlns="http://www.w3.org/2000/svg">
<path d="M10 14.5C13 9 15.5607 7.24506 24 3C24.816 5.77695 25.3802 7.69625 26.5 11.5C27 16 26.4313 18.2299 24.5 22C22 26 18.0611 27.9044 13 27C9.19056 22.9249 8.5 18 10 14.5Z" fill="#BAD04F"/>
<path d="M13 27C9.19056 22.9249 8.5 18 10 14.5C13 9 15.5607 7.24506 24 3C24.816 5.77695 25.3802 7.69625 26.5 11.5C27 16 26.4313 18.2299 24.5 22C22 26 18.0611 27.9044 13 27ZM13 27L11 29C9.26729 30.0188 8.11598 30.2111 7 30.5" stroke="#BAD04F" stroke-width="3"/>
</svg>
